<svg id="Layer_1" data-name="Layer 1" xmlns="http://www.w3.org/2000/svg" viewBox="0 0 595.28 290.52"><defs><style>.cls-1{fill:#182744;}.cls-2{fill:#43aec5;}</style></defs><path class="cls-1" d="M293.34,145.59H332v2.35H293.34Zm0-43.57a7.1,7.1,0,0,0,5.75,2.58c4.16,0,6.36-2.15,6.36-6.51V86.64H295.17v3.28h6.2v8.4c0,1.94-.85,2.92-2.49,2.92a4,4,0,0,1-3.28-1.94L293.33,102m29,2.27h4.28l-7.89-17.65h-4l-7.87,17.65H311l1.57-3.78h8.19Zm-8.45-6.88,2.8-6.76,2.8,6.76ZM322,81.57h-4.24l-3.4,3.63h3.07Zm22.05,22.72-4-5.67A5.75,5.75,0,0,0,343.73,93c0-4-3-6.4-7.67-6.4h-7.64v17.65h4.09V99.38h3.76l3.4,4.91ZM335.84,90c2.49,0,3.75,1.13,3.75,3.07s-1.26,3.08-3.75,3.08h-3.33V90h3.33m31,14.32-.05-17.65h-3.35l-6.51,11-6.61-11H347v17.65h3.84V93.93l5.17,8.5h1.84L363,93.7l0,10.59Zm4.05-7.76c0,5.19,3,8.06,8,8.06s8-2.87,8-8.06V86.64h-4v9.73c0,3.36-1.44,4.75-3.93,4.75S375,99.73,375,96.37V86.64h-4.08v9.89m4-11.33h2.88l2.62-3.63h-3.68Zm5.1,0h2.87l2.62-3.63h-3.68Zm10.9,19.09H395V86.64h-4.08ZM414.52,93c0-4-2.95-6.4-7.67-6.4h-7.64v17.65h4.09V99.43h3.55c4.72,0,7.67-2.45,7.67-6.39m-4.13,0c0,1.92-1.27,3.06-3.76,3.06H403.3V90h3.33c2.49,0,3.76,1.13,3.76,3.07m19.35,11.25H434l-7.89-17.65h-4l-7.86,17.65h4.18l1.57-3.78h8.19Zm-8.45-6.88,2.8-6.76,2.8,6.76Zm30.22,6.88-4-5.67A5.75,5.75,0,0,0,451.18,93c0-4-2.95-6.4-7.67-6.4h-7.64v17.65H440V99.38h3.76l3.4,4.91ZM443.29,90C445.78,90,447,91.1,447,93s-1.26,3.08-3.75,3.08H440V90h3.33m11.12,14.32h4.09V86.64h-4.09ZM306,134.57h2.22l-8.17-9.66,7.64-8h-2.14l-10.36,10.67V116.91h-1.87v17.66h1.87v-4.64l3.6-3.66Zm4.85-7.54c0,5.07,2.75,7.69,7.27,7.69s7.24-2.62,7.24-7.69V116.91h-1.82v10c0,4.19-2,6.1-5.42,6.1s-5.4-1.91-5.4-6.1v-10h-1.87V127m23.21,7.54H336v-16h6.2v-1.62H327.88v1.62h6.2Zm23.36,0h2l-8.07-17.66H349.5l-8.07,17.66h1.94l2.12-4.72h9.83Zm-11.27-6.23,4.24-9.48,4.23,9.48Zm18.72,6.23h1.87v-16H373v-1.62H358.68v1.62h6.21Zm9.23-8.83c0,5.15,3.94,9,9.29,9a9,9,0,1,0,0-18c-5.35,0-9.29,3.84-9.29,9m16.67,0a7.41,7.41,0,1,1-7.38-7.31,7.15,7.15,0,0,1,7.38,7.31m-9-10.26h1.77l4.09-3.13h-2.4Zm27.78,19.09h2.22l-8.17-9.66,7.64-8h-2.14l-10.37,10.67V116.91h-1.87v17.66h1.87v-4.64l3.61-3.66Zm3.06-8.83c0,5.15,3.93,9,9.28,9a9,9,0,1,0,0-18c-5.35,0-9.28,3.84-9.28,9m16.67,0a7.42,7.42,0,1,1-7.39-7.31,7.15,7.15,0,0,1,7.39,7.31m-10.72-11.93a1.07,1.07,0,0,0,1.09,1.09,1.08,1.08,0,0,0,1.08-1.09,1.09,1.09,0,0,0-1.08-1.08,1.08,1.08,0,0,0-1.09,1.08m4.49,0a1.09,1.09,0,1,0,1.08-1.08,1.08,1.08,0,0,0-1.08,1.08M435.86,133l11.68-14.75v-1.29h-14v1.62h11.52l-11.7,14.75v1.29h14.48V133Zm29.49-10c0-3.79-2.73-6.06-7.22-6.06h-6.6v17.66h1.86V129h4.74c4.49,0,7.22-2.27,7.22-6m-1.87,0c0,2.77-1.87,4.39-5.4,4.39h-4.69v-8.83h4.69c3.53,0,5.4,1.61,5.4,4.44m4.6,2.77c0,5.15,3.93,9,9.28,9a9,9,0,1,0,0-18c-5.35,0-9.28,3.84-9.28,9m16.67,0a7.42,7.42,0,1,1-7.39-7.31,7.16,7.16,0,0,1,7.39,7.31m19-8.83v14.33l-11.37-14.33h-1.54v17.66h1.86V120.24L504,134.57h1.54V116.91Zm11,17.66h1.86v-16h6.21v-1.62H508.54v1.62h6.21ZM308.81,159l-5.44,12.61L298,159h-4.41l7.62,17.66h4L312.87,159Zm9.59,14.38V169.3h8.2v-3.18h-8.2v-3.83h9.28V159H314.34v17.66H328v-3.28Zm25-14.38v7h-8v-7h-4.09v17.66h4.09v-7.24h8v7.24h4.08V159Zm8.28,17.66h4.08V159h-4.08Zm7.16-8.83c0,5.32,4.09,9.13,9.56,9.13a9.08,9.08,0,0,0,7.29-3.15l-2.62-2.42a5.66,5.66,0,0,1-4.44,2.09,5.65,5.65,0,0,1,0-11.3,5.7,5.7,0,0,1,4.44,2.07l2.62-2.42a9.11,9.11,0,0,0-7.26-3.13c-5.5,0-9.59,3.81-9.59,9.13m19.6,8.83h12.94v-3.33h-8.85V159h-4.09Zm19.3-3.28V169.3h8.2v-3.18h-8.2v-3.83H407V159H393.66v17.66h13.67v-3.28Zm-90.28,33.55-4.32-6.05a5.47,5.47,0,0,0,4-5.55c0-3.78-2.72-6.05-7.21-6.05h-6.61v17.65h1.87v-5.6H300a12.68,12.68,0,0,0,1.41-.07l4,5.67Zm-2.15-11.6c0,2.77-1.86,4.41-5.39,4.41h-4.69V190.9h4.69c3.53,0,5.39,1.62,5.39,4.44m8.16,10v-6.56h9.13v-1.59h-9.13V190.9h10.24v-1.61H311.58v17.65h12.48v-1.61Zm13.32-.53a9.58,9.58,0,0,0,6.56,2.29c4.51,0,6.58-2.22,6.58-4.81,0-6.44-10.87-3.51-10.87-8.35,0-1.77,1.44-3.21,4.66-3.21a9.07,9.07,0,0,1,4.85,1.47l.63-1.49a10,10,0,0,0-5.48-1.56c-4.49,0-6.5,2.24-6.5,4.84,0,6.53,10.87,3.55,10.87,8.4,0,1.74-1.44,3.12-4.74,3.12a8.71,8.71,0,0,1-5.83-2.14l-.73,1.44m19.07.53v-6.56H355v-1.59h-9.13V190.9h10.24v-1.61H344v17.65h12.49v-1.61Zm28.2,1.61h2l-8.07-17.65H366.1L358,206.94H360l2.12-4.71h9.83Zm-11.27-6.23,4.24-9.48,4.23,9.48ZM393,206.94l-4.32-6.05a5.47,5.47,0,0,0,4-5.55c0-3.78-2.72-6.05-7.21-6.05h-6.61v17.65h1.87v-5.6h4.74a12.68,12.68,0,0,0,1.41-.07l4,5.67Zm-2.15-11.6c0,2.77-1.86,4.41-5.39,4.41h-4.69V190.9h4.69c3.53,0,5.39,1.62,5.39,4.44m4.73,2.77a8.86,8.86,0,0,0,9.23,9,8.56,8.56,0,0,0,6.48-2.6l-1.19-1.18a6.9,6.9,0,0,1-5.22,2.12,7.32,7.32,0,1,1,0-14.63,7,7,0,0,1,5.22,2.09l1.19-1.18a8.52,8.52,0,0,0-6.46-2.57c-5.32,0-9.25,3.8-9.25,9m32.61-8.82v7.87h-11v-7.87h-1.87v17.65h1.87V198.8h11v8.14h1.84V189.29Zm12.65,8.82a8.86,8.86,0,0,0,9.23,9,8.56,8.56,0,0,0,6.48-2.6l-1.19-1.18a6.9,6.9,0,0,1-5.22,2.12,7.32,7.32,0,1,1,0-14.63,7,7,0,0,1,5.22,2.09l1.19-1.18a8.52,8.52,0,0,0-6.46-2.57c-5.32,0-9.25,3.8-9.25,9m21.57,7.22v-6.56h9.13v-1.59h-9.13V190.9h10.24v-1.61H460.58v17.65h12.48v-1.61Zm27.92-16v14.32L479,189.29h-1.54v17.65h1.87V192.62l11.35,14.32h1.53V189.29Zm11,17.65h1.87v-16h6.2v-1.61H495.2v1.61h6.2Zm12.92-1.61v-6.56h9.13v-1.59h-9.13V190.9h10.24v-1.61H512.45v17.65h12.49v-1.61Zm29.11,1.61-4.32-6.05a5.47,5.47,0,0,0,4-5.55c0-3.78-2.72-6.05-7.21-6.05h-6.61v17.65h1.87v-5.6h4.74a12.68,12.68,0,0,0,1.41-.07l4,5.67Zm-2.15-11.6c0,2.77-1.86,4.41-5.39,4.41H531.2V190.9h4.69c3.53,0,5.39,1.62,5.39,4.44M61,191.56C68.72,202.73,81.8,209,96.07,209c24.57,0,37.63-13.23,37.63-40V87.28l-17,17.44v65.05c0,16.15-7,24.4-20.62,24.4-10.14,0-18-4.17-24.51-13.45L61,191.56"/><path class="cls-2" d="M201.62,153.49l-10.1-12.09,53.41-54.75h19.59l-51.39,54.13,54.65,66.16h-20.1Zm3.52,53.45h20.1l-54.65-66.16L222,86.65H202.39L149,141.4l10.11,12.09Z"/></svg>